<?xml version="1.0" encoding="UTF-8"?>
<svg id="Layer_1" xmlns="http://www.w3.org/2000/svg" version="1.1" viewBox="0 0 24 24">
  <!-- Generator: Adobe Illustrator 29.6.1, SVG Export Plug-In . SVG Version: 2.1.1 Build 9)  -->
  <path d="M22,7h-7v-2h7v2ZM23.7,17c-.4,1.3-2,3-5.1,3s-5.6-1.7-5.6-5.7,2.3-5.9,5.5-5.9,5,1.8,5.4,4.4c0,.5.1,1.2,0,2.1h-8c.1,3.2,3.5,3.3,4.6,2h3.2ZM16,13h5c-.1-1.5-1.1-2.2-2.5-2.2s-2.3.8-2.5,2.2ZM6.5,20H0V5h7c5.5,0,5.6,5.4,2.7,6.9,3.5,1.3,3.6,8.1-3.2,8.1ZM3,11h3.6c2.5,0,2.9-3-.3-3h-3.3v3ZM6.4,14h-3.4v3h3.3c3.1,0,2.9-3,0-3Z"/>
</svg>