<?xml version="1.0" encoding="UTF-8"?>
<svg id="Layer_1" xmlns="http://www.w3.org/2000/svg" version="1.1" viewBox="0 0 24 24">
  <!-- Generator: Adobe Illustrator 29.6.1, SVG Export Plug-In . SVG Version: 2.1.1 Build 9)  -->
  <path d="M12,0C5.4,0,0,5.4,0,12s5.4,12,12,12,12-5.4,12-12S18.6,0,12,0ZM21.9,11.4c-2.6-.4-4.9-.4-7.1,0-.2-.6-.5-1.1-.8-1.7,2.3-1,4.2-2.4,5.5-4.1,1.4,1.6,2.2,3.6,2.3,5.8ZM18,4.2c-1.2,1.6-2.9,2.8-5,3.7-1-1.9-2.2-3.7-3.5-5.4.8-.2,1.6-.3,2.4-.3,2.3,0,4.4.8,6,2.1ZM7.5,3.2c1.3,1.7,2.5,3.5,3.5,5.4-2.4.7-5.3,1.1-8.7,1.1.7-2.8,2.6-5.2,5.1-6.5ZM2.1,12v-.3c3.9,0,7.2-.4,10-1.3.2.5.5,1,.7,1.4-3.4,1.1-6.2,3.2-8.3,6.5-1.4-1.7-2.3-3.9-2.3-6.3ZM5.9,19.8c2-3.1,4.5-5.1,7.6-6,.9,2.4,1.6,4.9,2,7.5-3.3,1.3-7,.7-9.6-1.4ZM17.5,20.2c-.4-2.4-1.1-4.7-1.9-6.9,1.9-.3,3.9-.2,6.2.2-.4,2.8-2,5.2-4.3,6.7Z"/>
</svg>