<?xml version="1.0" encoding="UTF-8"?>
<svg id="Layer_1" xmlns="http://www.w3.org/2000/svg" version="1.1" viewBox="0 0 24 24">
  <!-- Generator: Adobe Illustrator 29.6.1, SVG Export Plug-In . SVG Version: 2.1.1 Build 9)  -->
  <defs>
    <style>
      .st0 {
        fill: #fff;
      }
    </style>
  </defs>
  <path class="st0" d="M57.8,28.4c-.9.4-1.8.7-2.8.8,1-.6,1.8-1.6,2.2-2.7-1,.6-2,1-3.1,1.2-.9-1-2.2-1.6-3.6-1.6-3.2,0-5.5,3-4.8,6-4.1-.2-7.7-2.2-10.1-5.1-1.3,2.2-.7,5.1,1.5,6.6-.8,0-1.6-.2-2.2-.6,0,2.3,1.6,4.4,3.9,4.9-.7.2-1.5.2-2.2,0,.6,2,2.4,3.4,4.6,3.4-2.1,1.6-4.7,2.3-7.3,2,2.2,1.4,4.8,2.2,7.5,2.2,9.1,0,14.3-7.7,14-14.6,1-.7,1.8-1.6,2.5-2.5Z"/>
  <path d="M19,1.2h3.7l-8.1,9.2,9.4,12.5h-7.4l-5.8-7.6-6.6,7.6H.5l8.6-9.8L0,1.2h7.6l5.2,6.9,6.1-6.9ZM17.7,20.7h2L6.5,3.2h-2.2l13.3,17.4Z"/>
</svg>